<?xml version="1.0" encoding="UTF-8"?>
<!DOCTYPE svg PUBLIC "-//W3C//DTD SVG 1.1//EN" "http://www.w3.org/Graphics/SVG/1.1/DTD/svg11.dtd">
<!-- Creator: CorelDRAW 2017 -->
<svg xmlns="http://www.w3.org/2000/svg" xml:space="preserve" width="423.333mm" height="423.333mm" version="1.1" style="shape-rendering:geometricPrecision; text-rendering:geometricPrecision; image-rendering:optimizeQuality; fill-rule:evenodd; clip-rule:evenodd"
viewBox="0 0 42333 42333"
 xmlns:xlink="http://www.w3.org/1999/xlink">
 <defs>
  <style type="text/css">
   <![CDATA[
    .fil0 {fill:black}
    .fil3 {fill:#009846}
    .fil2 {fill:#E31E24}
    .fil1 {fill:#FFED00}
   ]]>
  </style>
 </defs>
 <g id="Layer_x0020_1">
  <metadata id="CorelCorpID_0Corel-Layer"/>
  <g id="_2714440485936">
   <g id="_989677904">
    <g>
     <path class="fil0" d="M21167 42333c11653,0 21167,-9514 21167,-21167 0,-11653 -9514,-21167 -21167,-21167 -11654,0 -21167,9514 -21167,21167 0,11653 9513,21167 21167,21167z"/>
     <path class="fil1" d="M21167 899c11165,0 20268,9103 20268,20268 0,11165 -9103,20268 -20268,20268 -11165,0 -20268,-9103 -20268,-20268 0,-11165 9103,-20268 20268,-20268z"/>
     <path class="fil0" d="M21457 4559c4096,53 8258,488 12433,1202l180 -205c93,76 183,154 274,232l-190 224c463,1704 595,3382 463,5047 -133,1599 -489,3171 -1004,4743 1097,-145 2180,-330 3263,-542 1153,-221 2293,-491 3409,-813 40,113 79,227 117,340 -1145,337 -2289,608 -3460,830 -1097,225 -2220,397 -3342,555 1044,3118 832,6196 502,9288 1493,278 2973,753 4440,1229 647,212 1281,423 1915,607l-105 344c-635,-185 -1282,-397 -1929,-608 -1414,-462 -2854,-925 -4295,-1202 185,1520 304,3026 317,4519 14,1572 -79,3117 -369,4637 225,225 449,449 661,661 99,94 196,188 293,282 -88,83 -176,165 -266,247 -94,-93 -186,-186 -279,-278 -224,-212 -449,-437 -674,-661 -4175,714 -8297,1163 -12354,1216l0 -357c4030,-66 8126,-502 12261,-1216 278,-1480 383,-2999 369,-4532 -13,-1520 -144,-3053 -330,-4585 -133,-26 -278,-40 -410,-66 -3963,423 -7927,582 -11891,556l0 -357c0,0 0,0 14,0 3951,26 7914,-145 11865,-556l26 0 14 0 13 0c119,14 238,40 357,54 330,-3079 542,-6144 -528,-9197 -3911,-555 -7835,-805 -11759,-792l0 -369c3924,-14 7849,251 11772,792 516,-1586 886,-3184 1018,-4797 133,-1625 14,-3263 -436,-4915 -4149,-700 -8284,-1137 -12354,-1189l0 -369 0 0zm-13569 31900l0 0c-92,-80 -182,-161 -273,-241 197,-191 389,-380 590,-570 212,-212 436,-436 660,-661 -290,-1520 -396,-3065 -369,-4637 13,-1481 132,-2973 304,-4479 -991,251 -2009,567 -2999,871 -1288,417 -2551,820 -3787,1047 -40,-115 -79,-231 -117,-348 1214,-225 2493,-634 3798,-1042 1044,-318 2088,-661 3145,-899 -330,-3105 -542,-6196 502,-9315 -251,-40 -502,-66 -766,-106 -2269,-290 -4551,-593 -6688,-1159 38,-117 77,-234 117,-350 2104,562 4364,864 6623,1153 238,27 463,66 701,93 -516,-1572 -872,-3157 -1004,-4756 -133,-1665 0,-3343 462,-5047l-441 -524c91,-74 182,-147 273,-220l446 506c3951,-886 8047,-1255 12181,-1216 80,0 145,0 212,0l0 369c-66,0 -145,0 -212,0 -4122,-40 -8192,317 -12116,1203 -448,1651 -567,3276 -436,4901 133,1612 502,3211 1018,4797 3924,-502 7849,-780 11746,-792l0 369c-3897,0 -7821,278 -11733,792 -1070,3066 -859,6131 -528,9209 119,-26 238,-40 357,-66l26 -13 26 13c3964,330 7915,529 11852,556l0 357c-3951,-14 -7914,-225 -11865,-556 -133,26 -278,54 -409,93 -185,1520 -318,3052 -330,4559 -14,1545 93,3065 369,4558 3924,885 7941,1229 12024,1189 66,0 145,0 212,0l0 357c-66,0 -132,0 -212,0 -4109,53 -8165,-304 -12129,-1202 -225,224 -436,436 -661,647 -185,184 -369,369 -567,560l0 0z"/>
    </g>
    <path class="fil2" d="M16305 4149c-4973,3273 -8551,7588 -9560,15750l-2200 0 0 53 0 54 0 53 0 54 0 53 0 53c0,1026 0,2052 0,3076l0 54c780,0 1572,0 2365,0 1480,6144 5311,12024 11469,14810 555,-898 1109,-1796 1651,-2708 -6368,-4031 -9196,-8073 -9632,-12102l7452 0c0,-1163 0,-2299 0,-3449l-7742 0c567,-5311 3593,-9606 8152,-13015l-1955 -2735 0 0z"/>
    <path class="fil0" d="M28896 3699c-2299,2841 -4599,5682 -6897,8522 -2840,4241 -1665,9342 3898,9937 4505,436 8390,528 5694,3937 -3224,3330 -5694,5668 -8919,8998 780,872 1546,1757 2326,2629 3065,-3171 6144,-6355 9209,-9526 3065,-3594 3197,-7055 -1903,-8522 -2908,-924 -7716,-621 -8205,-2550 -409,-938 423,-2669 2167,-4624 1757,-2167 3515,-4320 5259,-6487 -872,-780 -1744,-1546 -2629,-2313l0 0z"/>
    <path class="fil0" d="M22158 29781l0 -343c0,0 0,0 13,0 66,0 133,-27 172,-80 53,-53 80,-132 80,-238 0,-105 -27,-198 -80,-251 -53,-53 -105,-92 -184,-92l0 -318c39,-13 92,-13 158,-13 172,0 317,66 436,184 119,120 172,278 172,476 0,120 -26,238 -80,344 -66,105 -145,185 -251,251 -119,53 -251,79 -410,79 -13,0 -13,0 -25,0l0 0zm0 -1678l0 0 0 -343c158,0 277,26 369,66 93,26 172,79 224,145 66,79 106,158 133,264l-528 66c-14,-80 -40,-133 -80,-159 -26,-26 -65,-40 -118,-40l0 0zm1202 -303l0 0 1282 0 0 436 -872 0 -39 290c53,-26 118,-53 172,-66 53,-13 119,-26 172,-26 198,0 357,66 476,185 119,119 185,264 185,436 0,133 -27,251 -93,370 -66,105 -159,198 -264,264 -119,53 -264,93 -449,93 -119,0 -238,-14 -330,-40 -79,-26 -159,-66 -224,-105 -66,-53 -119,-106 -159,-172 -40,-53 -80,-132 -106,-224l556 -53c13,79 39,145 93,198 53,40 105,66 172,66 79,0 132,-26 185,-93 53,-53 79,-132 79,-251 0,-119 -26,-198 -79,-251 -54,-53 -119,-79 -199,-79 -53,0 -105,13 -145,39 -39,14 -79,40 -119,93l-462 -66 172 -1043 0 0zm-1202 -40l0 0 0 343c-93,0 -159,40 -199,133 -40,53 -66,198 -79,409 53,-66 132,-119 198,-145 26,-14 53,-26 80,-40l0 318c-80,0 -133,26 -185,92 -54,54 -80,133 -80,238 0,106 26,185 80,238 53,66 105,93 185,93l0 343c-185,-14 -330,-40 -449,-106 -106,-65 -212,-172 -278,-317 -66,-145 -105,-330 -105,-581 0,-344 79,-608 224,-767 145,-158 343,-238 608,-251l0 0zm-1876 2022l0 0 0 -330c93,0 158,-53 198,-133 40,-65 66,-212 79,-409 -65,66 -132,106 -198,145 -26,14 -53,14 -79,26l0 -317c79,0 132,-26 185,-79 53,-66 79,-146 79,-251 0,-93 -26,-185 -79,-238 -54,-66 -119,-93 -185,-93l0 -343c185,13 330,40 436,105 119,66 212,172 290,318 66,145 106,343 106,581 0,343 -80,607 -225,766 -145,159 -343,251 -607,251l0 0zm-1348 -2022l0 0 0 1982 -542 0 0 -1294c-92,66 -172,119 -264,158 -79,54 -184,93 -303,133l0 -449c184,-66 330,-133 422,-212 106,-93 185,-185 238,-317l449 0zm1348 0l0 0 0 343c0,0 0,0 -14,0 -66,0 -132,26 -172,80 -53,53 -79,132 -79,237 0,119 26,199 79,251 53,66 105,93 185,93l0 317c-40,14 -93,14 -159,14 -172,0 -317,-53 -436,-185 -119,-119 -185,-278 -185,-462 0,-133 40,-251 93,-357 66,-106 145,-185 251,-238 119,-53 251,-93 410,-93 13,0 13,0 26,0l0 0zm0 1691l0 0 0 330c0,0 0,0 -14,0 -145,0 -264,-26 -357,-54 -93,-39 -172,-92 -224,-158 -66,-66 -106,-159 -133,-264l529 -66c13,79 39,132 79,159 26,26 65,53 119,53l0 0z"/>
    <g>
     <g>
      <polygon class="fil2" points="20056,32966 20255,33561 20863,33561 20361,33917 20558,34511 20056,34142 19554,34511 19753,33917 19251,33561 19872,33561 "/>
      <polygon class="fil0" points="22422,32966 22620,33561 23241,33561 22739,33917 22924,34511 22422,34142 21933,34511 22118,33917 21616,33561 22237,33561 "/>
     </g>
     <polygon class="fil3" points="21246,31327 21444,31922 22052,31922 21550,32279 21748,32873 21246,32503 20744,32873 20942,32279 20440,31922 21060,31922 "/>
    </g>
   </g>
  </g>
 </g>
</svg>
